<?xml version="1.0" encoding="UTF-8" standalone="no"?>
<!DOCTYPE svg PUBLIC "-//W3C//DTD SVG 1.1//EN"
 "http://www.w3.org/Graphics/SVG/1.1/DTD/svg11.dtd">
<!-- Generated by graphviz version 14.0.4 (20251115.1723)
 -->
<!-- Title: flow Pages: 1 -->
<svg width="1096pt" height="674pt"
 viewBox="0.00 0.00 1096.00 674.00" xmlns="http://www.w3.org/2000/svg" xmlns:xlink="http://www.w3.org/1999/xlink">
<g id="graph0" class="graph" transform="scale(1 1) rotate(0) translate(4 670)">
<title>flow</title>
<polygon fill="white" stroke="none" points="-4,4 -4,-670 1092.19,-670 1092.19,4 -4,4"/>
<g id="clust1" class="cluster">
<title>cluster_init</title>
<polygon fill="none" stroke="black" points="43.19,-410 43.19,-561.5 319.19,-561.5 319.19,-410 43.19,-410"/>
<text xml:space="preserve" text-anchor="middle" x="181.19" y="-544.2" font-family="Times New Roman,serif" font-size="14.00">Initialization Process</text>
</g>
<g id="clust2" class="cluster">
<title>cluster_connect</title>
<polygon fill="none" stroke="black" points="370.19,-66.75 370.19,-657.5 800.19,-657.5 800.19,-66.75 370.19,-66.75"/>
<text xml:space="preserve" text-anchor="middle" x="585.19" y="-640.2" font-family="Times New Roman,serif" font-size="14.00">Connecting devices process</text>
</g>
<g id="clust3" class="cluster">
<title>cluster_operation</title>
<polygon fill="none" stroke="black" points="808.19,-231 808.19,-658 1080.19,-658 1080.19,-231 808.19,-231"/>
<text xml:space="preserve" text-anchor="middle" x="944.19" y="-640.7" font-family="Times New Roman,serif" font-size="14.00">API usage process</text>
</g>
<!-- start -->
<g id="node1" class="node">
<title>start</title>
<polygon fill="none" stroke="black" points="181.19,-625 141.14,-607 181.19,-589 221.24,-607 181.19,-625"/>
<polyline fill="none" stroke="black" points="152.09,-611.92 152.09,-602.08"/>
<polyline fill="none" stroke="black" points="170.25,-593.92 192.14,-593.92"/>
<polyline fill="none" stroke="black" points="210.3,-602.08 210.3,-611.92"/>
<polyline fill="none" stroke="black" points="192.14,-620.08 170.25,-620.08"/>
<text xml:space="preserve" text-anchor="middle" x="181.19" y="-601.95" font-family="Times New Roman,serif" font-size="14.00">Start</text>
</g>
<!-- init_1 -->
<g id="node2" class="node">
<title>init_1</title>
<polygon fill="none" stroke="black" points="83.94,-492.5 83.94,-528.5 278.44,-528.5 278.44,-492.5 83.94,-492.5"/>
<text xml:space="preserve" text-anchor="middle" x="181.19" y="-505.45" font-family="Times New Roman,serif" font-size="14.00">Initialize JL_BluetoothManagerr</text>
</g>
<!-- start&#45;&gt;init_1 -->
<g id="edge1" class="edge">
<title>start&#45;&gt;init_1</title>
<path fill="none" stroke="black" d="M181.19,-588.67C181.19,-575.08 181.19,-555.89 181.19,-540.04"/>
<polygon fill="black" stroke="black" points="184.69,-540.24 181.19,-530.24 177.69,-540.24 184.69,-540.24"/>
</g>
<!-- init_2 -->
<g id="node3" class="node">
<title>init_2</title>
<polygon fill="none" stroke="black" points="50.94,-418.5 50.94,-454.5 311.44,-454.5 311.44,-418.5 50.94,-418.5"/>
<text xml:space="preserve" text-anchor="middle" x="181.19" y="-431.45" font-family="Times New Roman,serif" font-size="14.00">Configure JL_BluetoothManager parameters</text>
</g>
<!-- init_1&#45;&gt;init_2 -->
<g id="edge8" class="edge">
<title>init_1&#45;&gt;init_2</title>
<path fill="none" stroke="black" d="M181.19,-492.07C181.19,-484.29 181.19,-474.91 181.19,-466.14"/>
<polygon fill="black" stroke="black" points="184.69,-466.28 181.19,-456.28 177.69,-466.28 184.69,-466.28"/>
</g>
<!-- cluster_connect -->
<g id="node4" class="node">
<title>cluster_connect</title>
<ellipse fill="none" stroke="black" cx="181.19" cy="-347" rx="68.75" ry="18"/>
<text xml:space="preserve" text-anchor="middle" x="181.19" y="-341.95" font-family="Times New Roman,serif" font-size="14.00">cluster_connect</text>
</g>
<!-- init_2&#45;&gt;cluster_connect -->
<g id="edge2" class="edge">
<title>init_2&#45;&gt;cluster_connect</title>
<path fill="none" stroke="black" d="M181.19,-418.21C181.19,-406.35 181.19,-390.32 181.19,-376.58"/>
<polygon fill="black" stroke="black" points="184.69,-376.76 181.19,-366.76 177.69,-376.76 184.69,-376.76"/>
</g>
<!-- connect_ok -->
<g id="node5" class="node">
<title>connect_ok</title>
<polygon fill="none" stroke="black" points="181.19,-275.5 0,-257.5 181.19,-239.5 362.39,-257.5 181.19,-275.5"/>
<text xml:space="preserve" text-anchor="middle" x="181.19" y="-252.45" font-family="Times New Roman,serif" font-size="14.00">Was the connection successful?</text>
</g>
<!-- cluster_connect&#45;&gt;connect_ok -->
<g id="edge3" class="edge">
<title>cluster_connect&#45;&gt;connect_ok</title>
<path fill="none" stroke="black" d="M180.02,-328.67C179.68,-322.9 179.36,-316.42 179.19,-310.5 178.99,-303.17 178.99,-301.33 179.19,-294 179.26,-291.78 179.34,-289.48 179.44,-287.17"/>
<polygon fill="black" stroke="black" points="182.93,-287.5 179.94,-277.34 175.94,-287.14 182.93,-287.5"/>
</g>
<!-- connect_ok&#45;&gt;cluster_connect -->
<g id="edge4" class="edge">
<title>connect_ok&#45;&gt;cluster_connect</title>
<path fill="none" stroke="black" d="M181.19,-275.75C181.19,-287.61 181.19,-303.63 181.19,-317.38"/>
<polygon fill="black" stroke="black" points="177.69,-317.2 181.19,-327.2 184.69,-317.2 177.69,-317.2"/>
<text xml:space="preserve" text-anchor="middle" x="190.94" y="-297.2" font-family="Times New Roman,serif" font-size="14.00">NO</text>
</g>
<!-- cluster_operation -->
<g id="node6" class="node">
<title>cluster_operation</title>
<ellipse fill="none" stroke="black" cx="181.19" cy="-168" rx="74.89" ry="18"/>
<text xml:space="preserve" text-anchor="middle" x="181.19" y="-162.95" font-family="Times New Roman,serif" font-size="14.00">cluster_operation</text>
</g>
<!-- connect_ok&#45;&gt;cluster_operation -->
<g id="edge5" class="edge">
<title>connect_ok&#45;&gt;cluster_operation</title>
<path fill="none" stroke="black" d="M181.19,-239.21C181.19,-227.35 181.19,-211.32 181.19,-197.58"/>
<polygon fill="black" stroke="black" points="184.69,-197.76 181.19,-187.76 177.69,-197.76 184.69,-197.76"/>
<text xml:space="preserve" text-anchor="middle" x="193.94" y="-207.7" font-family="Times New Roman,serif" font-size="14.00">YES</text>
</g>
<!-- reseale -->
<g id="node7" class="node">
<title>reseale</title>
<polygon fill="none" stroke="black" points="60.32,-75.62 60.32,-111.62 302.07,-111.62 302.07,-75.62 60.32,-75.62"/>
<text xml:space="preserve" text-anchor="middle" x="181.19" y="-88.58" font-family="Times New Roman,serif" font-size="14.00">Destroy the JL_BluetoothManager object</text>
</g>
<!-- cluster_operation&#45;&gt;reseale -->
<g id="edge6" class="edge">
<title>cluster_operation&#45;&gt;reseale</title>
<path fill="none" stroke="black" d="M181.19,-149.85C181.19,-141.83 181.19,-132.06 181.19,-122.98"/>
<polygon fill="black" stroke="black" points="184.69,-123.17 181.19,-113.17 177.69,-123.17 184.69,-123.17"/>
</g>
<!-- end -->
<g id="node8" class="node">
<title>end</title>
<polygon fill="none" stroke="black" points="200.07,-37.75 162.32,-37.75 162.32,0 200.07,0 200.07,-37.75"/>
<polyline fill="none" stroke="black" points="174.32,-37.75 162.32,-25.75"/>
<polyline fill="none" stroke="black" points="162.32,-12 174.32,0"/>
<polyline fill="none" stroke="black" points="188.07,0 200.07,-12"/>
<polyline fill="none" stroke="black" points="200.07,-25.75 188.07,-37.75"/>
<text xml:space="preserve" text-anchor="middle" x="181.19" y="-13.82" font-family="Times New Roman,serif" font-size="14.00">End</text>
</g>
<!-- reseale&#45;&gt;end -->
<g id="edge7" class="edge">
<title>reseale&#45;&gt;end</title>
<path fill="none" stroke="black" d="M181.19,-75.38C181.19,-67.64 181.19,-58.28 181.19,-49.48"/>
<polygon fill="black" stroke="black" points="184.69,-49.52 181.19,-39.52 177.69,-49.52 184.69,-49.52"/>
</g>
<!-- begin -->
<g id="node9" class="node">
<title>begin</title>
<polygon fill="none" stroke="black" points="585.19,-625 547.31,-607 585.19,-589 623.07,-607 585.19,-625"/>
<polyline fill="none" stroke="black" points="558.15,-612.15 558.15,-601.85"/>
<polyline fill="none" stroke="black" points="574.35,-594.15 596.03,-594.15"/>
<polyline fill="none" stroke="black" points="612.23,-601.85 612.23,-612.15"/>
<polyline fill="none" stroke="black" points="596.03,-619.85 574.35,-619.85"/>
<text xml:space="preserve" text-anchor="middle" x="585.19" y="-601.95" font-family="Times New Roman,serif" font-size="14.00">start</text>
</g>
<!-- listen -->
<g id="node10" class="node">
<title>listen</title>
<polygon fill="none" stroke="black" points="498.82,-492.5 498.82,-528.5 671.57,-528.5 671.57,-492.5 498.82,-492.5"/>
<text xml:space="preserve" text-anchor="middle" x="585.19" y="-505.45" font-family="Times New Roman,serif" font-size="14.00">Add Bluetooth event listener</text>
</g>
<!-- begin&#45;&gt;listen -->
<g id="edge9" class="edge">
<title>begin&#45;&gt;listen</title>
<path fill="none" stroke="black" d="M585.19,-588.67C585.19,-575.08 585.19,-555.89 585.19,-540.04"/>
<polygon fill="black" stroke="black" points="588.69,-540.24 585.19,-530.24 581.69,-540.24 588.69,-540.24"/>
</g>
<!-- scan -->
<g id="node11" class="node">
<title>scan</title>
<polygon fill="none" stroke="black" points="515.32,-418.5 515.32,-454.5 655.07,-454.5 655.07,-418.5 515.32,-418.5"/>
<text xml:space="preserve" text-anchor="middle" x="585.19" y="-431.45" font-family="Times New Roman,serif" font-size="14.00">Scanning BLE devices</text>
</g>
<!-- listen&#45;&gt;scan -->
<g id="edge10" class="edge">
<title>listen&#45;&gt;scan</title>
<path fill="none" stroke="black" d="M585.19,-492.07C585.19,-484.29 585.19,-474.91 585.19,-466.14"/>
<polygon fill="black" stroke="black" points="588.69,-466.28 585.19,-456.28 581.69,-466.28 588.69,-466.28"/>
</g>
<!-- foudn_ok -->
<g id="node12" class="node">
<title>foudn_ok</title>
<polygon fill="none" stroke="black" points="585.19,-365 377.94,-347 585.19,-329 792.44,-347 585.19,-365"/>
<text xml:space="preserve" text-anchor="middle" x="585.19" y="-341.95" font-family="Times New Roman,serif" font-size="14.00">Has the target device been detected?</text>
</g>
<!-- scan&#45;&gt;foudn_ok -->
<g id="edge11" class="edge">
<title>scan&#45;&gt;foudn_ok</title>
<path fill="none" stroke="black" d="M581.09,-418.27C579.91,-412.49 578.78,-406 578.19,-400 577.48,-392.7 577.48,-390.8 578.19,-383.5 578.43,-381.11 578.75,-378.64 579.12,-376.16"/>
<polygon fill="black" stroke="black" points="582.56,-376.83 580.9,-366.36 575.67,-375.58 582.56,-376.83"/>
</g>
<!-- foudn_ok&#45;&gt;scan -->
<g id="edge12" class="edge">
<title>foudn_ok&#45;&gt;scan</title>
<path fill="none" stroke="black" d="M585.19,-365.25C585.19,-377.11 585.19,-393.13 585.19,-406.88"/>
<polygon fill="black" stroke="black" points="581.69,-406.7 585.19,-416.7 588.69,-406.7 581.69,-406.7"/>
<text xml:space="preserve" text-anchor="middle" x="594.94" y="-386.7" font-family="Times New Roman,serif" font-size="14.00">NO</text>
</g>
<!-- connect -->
<g id="node13" class="node">
<title>connect</title>
<polygon fill="none" stroke="black" points="510.82,-239.5 510.82,-275.5 659.57,-275.5 659.57,-239.5 510.82,-239.5"/>
<text xml:space="preserve" text-anchor="middle" x="585.19" y="-252.45" font-family="Times New Roman,serif" font-size="14.00">Connect to target device</text>
</g>
<!-- foudn_ok&#45;&gt;connect -->
<g id="edge13" class="edge">
<title>foudn_ok&#45;&gt;connect</title>
<path fill="none" stroke="black" d="M585.19,-328.71C585.19,-316.85 585.19,-300.82 585.19,-287.08"/>
<polygon fill="black" stroke="black" points="588.69,-287.26 585.19,-277.26 581.69,-287.26 588.69,-287.26"/>
<text xml:space="preserve" text-anchor="middle" x="597.94" y="-297.2" font-family="Times New Roman,serif" font-size="14.00">YES</text>
</g>
<!-- output -->
<g id="node14" class="node">
<title>output</title>
<polygon fill="none" stroke="black" points="416.32,-150 416.32,-186 754.07,-186 754.07,-150 416.32,-150"/>
<text xml:space="preserve" text-anchor="middle" x="585.19" y="-162.95" font-family="Times New Roman,serif" font-size="14.00">Output the results and remove the Bluetooth event listener.</text>
</g>
<!-- connect&#45;&gt;output -->
<g id="edge14" class="edge">
<title>connect&#45;&gt;output</title>
<path fill="none" stroke="black" d="M585.19,-239.21C585.19,-227.35 585.19,-211.32 585.19,-197.58"/>
<polygon fill="black" stroke="black" points="588.69,-197.76 585.19,-187.76 581.69,-197.76 588.69,-197.76"/>
</g>
<!-- finish -->
<g id="node15" class="node">
<title>finish</title>
<polygon fill="none" stroke="black" points="604.07,-112.5 566.32,-112.5 566.32,-74.75 604.07,-74.75 604.07,-112.5"/>
<polyline fill="none" stroke="black" points="578.32,-112.5 566.32,-100.5"/>
<polyline fill="none" stroke="black" points="566.32,-86.75 578.32,-74.75"/>
<polyline fill="none" stroke="black" points="592.07,-74.75 604.07,-86.75"/>
<polyline fill="none" stroke="black" points="604.07,-100.5 592.07,-112.5"/>
<text xml:space="preserve" text-anchor="middle" x="585.19" y="-88.58" font-family="Times New Roman,serif" font-size="14.00">End</text>
</g>
<!-- output&#45;&gt;finish -->
<g id="edge15" class="edge">
<title>output&#45;&gt;finish</title>
<path fill="none" stroke="black" d="M585.19,-149.85C585.19,-142.2 585.19,-132.97 585.19,-124.27"/>
<polygon fill="black" stroke="black" points="588.69,-124.43 585.19,-114.43 581.69,-124.43 588.69,-124.43"/>
</g>
<!-- op_0 -->
<g id="node16" class="node">
<title>op_0</title>
<polygon fill="none" stroke="black" points="834.94,-589 834.94,-625 1053.44,-625 1053.44,-589 834.94,-589"/>
<text xml:space="preserve" text-anchor="middle" x="944.19" y="-601.95" font-family="Times New Roman,serif" font-size="14.00">Get the JL_BluetoothManager object</text>
</g>
<!-- op_1 -->
<g id="node17" class="node">
<title>op_1</title>
<polygon fill="none" stroke="black" points="839.44,-492.5 839.44,-528.5 1048.94,-528.5 1048.94,-492.5 839.44,-492.5"/>
<text xml:space="preserve" text-anchor="middle" x="944.19" y="-505.45" font-family="Times New Roman,serif" font-size="14.00">Add Bluetooth RCSP event listener</text>
</g>
<!-- op_0&#45;&gt;op_1 -->
<g id="edge16" class="edge">
<title>op_0&#45;&gt;op_1</title>
<path fill="none" stroke="black" d="M944.19,-588.67C944.19,-575.08 944.19,-555.89 944.19,-540.04"/>
<polygon fill="black" stroke="black" points="947.69,-540.24 944.19,-530.24 940.69,-540.24 947.69,-540.24"/>
</g>
<!-- op_2 -->
<g id="node18" class="node">
<title>op_2</title>
<polygon fill="none" stroke="black" points="816.19,-418.5 816.19,-454.5 1072.19,-454.5 1072.19,-418.5 816.19,-418.5"/>
<text xml:space="preserve" text-anchor="middle" x="944.19" y="-431.45" font-family="Times New Roman,serif" font-size="14.00">Call the interface to implement the function</text>
</g>
<!-- op_1&#45;&gt;op_2 -->
<g id="edge17" class="edge">
<title>op_1&#45;&gt;op_2</title>
<path fill="none" stroke="black" d="M944.19,-492.07C944.19,-484.29 944.19,-474.91 944.19,-466.14"/>
<polygon fill="black" stroke="black" points="947.69,-466.28 944.19,-456.28 940.69,-466.28 947.69,-466.28"/>
</g>
<!-- op_3 -->
<g id="node19" class="node">
<title>op_3</title>
<polygon fill="none" stroke="black" points="821.07,-329 821.07,-365 1067.32,-365 1067.32,-329 821.07,-329"/>
<text xml:space="preserve" text-anchor="middle" x="944.19" y="-341.95" font-family="Times New Roman,serif" font-size="14.00">Wait for the result callback and process it.</text>
</g>
<!-- op_2&#45;&gt;op_3 -->
<g id="edge18" class="edge">
<title>op_2&#45;&gt;op_3</title>
<path fill="none" stroke="black" d="M944.19,-418.21C944.19,-406.35 944.19,-390.32 944.19,-376.58"/>
<polygon fill="black" stroke="black" points="947.69,-376.76 944.19,-366.76 940.69,-376.76 947.69,-376.76"/>
</g>
<!-- op_4 -->
<g id="node20" class="node">
<title>op_4</title>
<polygon fill="none" stroke="black" points="828.19,-239.5 828.19,-275.5 1060.19,-275.5 1060.19,-239.5 828.19,-239.5"/>
<text xml:space="preserve" text-anchor="middle" x="944.19" y="-252.45" font-family="Times New Roman,serif" font-size="14.00">Remove Bluetooth RCSP event listener</text>
</g>
<!-- op_3&#45;&gt;op_4 -->
<g id="edge19" class="edge">
<title>op_3&#45;&gt;op_4</title>
<path fill="none" stroke="black" d="M944.19,-328.71C944.19,-316.85 944.19,-300.82 944.19,-287.08"/>
<polygon fill="black" stroke="black" points="947.69,-287.26 944.19,-277.26 940.69,-287.26 947.69,-287.26"/>
</g>
</g>
</svg>
